<svg width="48" height="48" viewBox="0 0 48 48" fill="none" xmlns="http://www.w3.org/2000/svg">
<circle cx="24" cy="24" r="23.5" fill="white" stroke="#4A4A4A"/>
<path d="M16.5 33C16.5 33 15 33 15 31.5C15 30 16.5 25.5 24 25.5C31.5 25.5 33 30 33 31.5C33 33 31.5 33 31.5 33H16.5ZM24 24C25.1935 24 26.3381 23.5259 27.182 22.682C28.0259 21.8381 28.5 20.6935 28.5 19.5C28.5 18.3065 28.0259 17.1619 27.182 16.318C26.3381 15.4741 25.1935 15 24 15C22.8065 15 21.6619 15.4741 20.818 16.318C19.9741 17.1619 19.5 18.3065 19.5 19.5C19.5 20.6935 19.9741 21.8381 20.818 22.682C21.6619 23.5259 22.8065 24 24 24Z" fill="#4A4A4A"/>
</svg>
