<svg width="376" height="100" viewBox="0 0 376 100" fill="none" xmlns="http://www.w3.org/2000/svg">
<circle cx="50" cy="50" r="50" fill="#F14535"/>
<path fill-rule="evenodd" clip-rule="evenodd" d="M56 30.5C56 30.1022 55.842 29.7206 55.5607 29.4393C55.2794 29.158 54.8978 29 54.5 29H45.5C45.1022 29 44.7206 29.158 44.4393 29.4393C44.158 29.7206 44 30.1022 44 30.5V33.5C44 33.8978 44.158 34.2794 44.4393 34.5607C44.7206 34.842 45.1022 35 45.5 35H54.5C54.8978 35 55.2794 34.842 55.5607 34.5607C55.842 34.2794 56 33.8978 56 33.5V30.5ZM41 30.5C41 29.3065 41.4741 28.1619 42.318 27.318C43.1619 26.4741 44.3065 26 45.5 26H54.5C55.6935 26 56.8381 26.4741 57.682 27.318C58.5259 28.1619 59 29.3065 59 30.5V33.5C59 34.6935 58.5259 35.8381 57.682 36.682C56.8381 37.5259 55.6935 38 54.5 38H45.5C44.3065 38 43.1619 37.5259 42.318 36.682C41.4741 35.8381 41 34.6935 41 33.5V30.5ZM35 30.5H38V33.5C38 35.4891 38.7902 37.3968 40.1967 38.8033C41.6032 40.2098 43.5109 41 45.5 41H54.5C55.4849 41 56.4602 40.806 57.3701 40.4291C58.2801 40.0522 59.1069 39.4997 59.8033 38.8033C60.4997 38.1069 61.0522 37.2801 61.4291 36.3701C61.806 35.4602 62 34.4849 62 33.5V30.5H65C66.5913 30.5 68.1174 31.1321 69.2426 32.2574C70.3679 33.3826 71 34.9087 71 36.5V68C71 69.5913 70.3679 71.1174 69.2426 72.2426C68.1174 73.3679 66.5913 74 65 74H35C33.4087 74 31.8826 73.3679 30.7574 72.2426C29.6321 71.1174 29 69.5913 29 68V36.5C29 34.9087 29.6321 33.3826 30.7574 32.2574C31.8826 31.1321 33.4087 30.5 35 30.5Z" fill="white"/>
<path d="M143.875 52.0312H132.188L132.125 45.5938H141.938C143.667 45.5938 145.083 45.375 146.188 44.9375C147.292 44.4792 148.115 43.8229 148.656 42.9688C149.219 42.0938 149.5 41.0312 149.5 39.7812C149.5 38.3646 149.229 37.2188 148.688 36.3438C148.167 35.4688 147.344 34.8333 146.219 34.4375C145.115 34.0417 143.688 33.8438 141.938 33.8438H135.438V72H126.062V26.5H141.938C144.583 26.5 146.948 26.75 149.031 27.25C151.135 27.75 152.917 28.5104 154.375 29.5312C155.833 30.5521 156.948 31.8438 157.719 33.4062C158.49 34.9479 158.875 36.7812 158.875 38.9062C158.875 40.7812 158.448 42.5104 157.594 44.0938C156.76 45.6771 155.438 46.9688 153.625 47.9688C151.833 48.9688 149.49 49.5208 146.594 49.625L143.875 52.0312ZM143.469 72H129.625L133.281 64.6875H143.469C145.115 64.6875 146.458 64.4271 147.5 63.9062C148.542 63.3646 149.312 62.6354 149.812 61.7188C150.312 60.8021 150.562 59.75 150.562 58.5625C150.562 57.2292 150.333 56.0729 149.875 55.0938C149.438 54.1146 148.729 53.3646 147.75 52.8438C146.771 52.3021 145.479 52.0312 143.875 52.0312H134.844L134.906 45.5938H146.156L148.312 48.125C151.083 48.0833 153.312 48.5729 155 49.5938C156.708 50.5938 157.948 51.8958 158.719 53.5C159.51 55.1042 159.906 56.8229 159.906 58.6562C159.906 61.5729 159.271 64.0312 158 66.0312C156.729 68.0104 154.865 69.5 152.406 70.5C149.969 71.5 146.99 72 143.469 72ZM164.938 55.4375V54.7812C164.938 52.3021 165.292 50.0208 166 47.9375C166.708 45.8333 167.74 44.0104 169.094 42.4688C170.448 40.9271 172.115 39.7292 174.094 38.875C176.073 38 178.344 37.5625 180.906 37.5625C183.469 37.5625 185.75 38 187.75 38.875C189.75 39.7292 191.427 40.9271 192.781 42.4688C194.156 44.0104 195.198 45.8333 195.906 47.9375C196.615 50.0208 196.969 52.3021 196.969 54.7812V55.4375C196.969 57.8958 196.615 60.1771 195.906 62.2812C195.198 64.3646 194.156 66.1875 192.781 67.75C191.427 69.2917 189.76 70.4896 187.781 71.3438C185.802 72.1979 183.531 72.625 180.969 72.625C178.406 72.625 176.125 72.1979 174.125 71.3438C172.146 70.4896 170.469 69.2917 169.094 67.75C167.74 66.1875 166.708 64.3646 166 62.2812C165.292 60.1771 164.938 57.8958 164.938 55.4375ZM173.938 54.7812V55.4375C173.938 56.8542 174.062 58.1771 174.312 59.4062C174.562 60.6354 174.958 61.7188 175.5 62.6562C176.062 63.5729 176.792 64.2917 177.688 64.8125C178.583 65.3333 179.677 65.5938 180.969 65.5938C182.219 65.5938 183.292 65.3333 184.188 64.8125C185.083 64.2917 185.802 63.5729 186.344 62.6562C186.885 61.7188 187.281 60.6354 187.531 59.4062C187.802 58.1771 187.938 56.8542 187.938 55.4375V54.7812C187.938 53.4062 187.802 52.1146 187.531 50.9062C187.281 49.6771 186.875 48.5938 186.312 47.6562C185.771 46.6979 185.052 45.9479 184.156 45.4062C183.26 44.8646 182.177 44.5938 180.906 44.5938C179.635 44.5938 178.552 44.8646 177.656 45.4062C176.781 45.9479 176.062 46.6979 175.5 47.6562C174.958 48.5938 174.562 49.6771 174.312 50.9062C174.062 52.1146 173.938 53.4062 173.938 54.7812ZM220.75 64.375V49.3125C220.75 48.2292 220.573 47.3021 220.219 46.5312C219.865 45.7396 219.312 45.125 218.562 44.6875C217.833 44.25 216.885 44.0312 215.719 44.0312C214.719 44.0312 213.854 44.2083 213.125 44.5625C212.396 44.8958 211.833 45.3854 211.438 46.0312C211.042 46.6562 210.844 47.3958 210.844 48.25H201.844C201.844 46.8125 202.177 45.4479 202.844 44.1562C203.51 42.8646 204.479 41.7292 205.75 40.75C207.021 39.75 208.531 38.9688 210.281 38.4062C212.052 37.8438 214.031 37.5625 216.219 37.5625C218.844 37.5625 221.177 38 223.219 38.875C225.26 39.75 226.865 41.0625 228.031 42.8125C229.219 44.5625 229.812 46.75 229.812 49.375V63.8438C229.812 65.6979 229.927 67.2188 230.156 68.4062C230.385 69.5729 230.719 70.5938 231.156 71.4688V72H222.062C221.625 71.0833 221.292 69.9375 221.062 68.5625C220.854 67.1667 220.75 65.7708 220.75 64.375ZM221.938 51.4062L222 56.5H216.969C215.781 56.5 214.75 56.6354 213.875 56.9062C213 57.1771 212.281 57.5625 211.719 58.0625C211.156 58.5417 210.74 59.1042 210.469 59.75C210.219 60.3958 210.094 61.1042 210.094 61.875C210.094 62.6458 210.271 63.3438 210.625 63.9688C210.979 64.5729 211.49 65.0521 212.156 65.4062C212.823 65.7396 213.604 65.9062 214.5 65.9062C215.854 65.9062 217.031 65.6354 218.031 65.0938C219.031 64.5521 219.802 63.8854 220.344 63.0938C220.906 62.3021 221.198 61.5521 221.219 60.8438L223.594 64.6562C223.26 65.5104 222.802 66.3958 222.219 67.3125C221.656 68.2292 220.938 69.0938 220.062 69.9062C219.188 70.6979 218.135 71.3542 216.906 71.875C215.677 72.375 214.219 72.625 212.531 72.625C210.385 72.625 208.438 72.1979 206.688 71.3438C204.958 70.4688 203.583 69.2708 202.562 67.75C201.562 66.2083 201.062 64.4583 201.062 62.5C201.062 60.7292 201.396 59.1562 202.062 57.7812C202.729 56.4062 203.708 55.25 205 54.3125C206.312 53.3542 207.948 52.6354 209.906 52.1562C211.865 51.6562 214.135 51.4062 216.719 51.4062H221.938ZM245.75 45.5625V72H236.75V38.1875H245.219L245.75 45.5625ZM255.938 37.9688L255.781 46.3125C255.344 46.25 254.812 46.1979 254.188 46.1562C253.583 46.0938 253.031 46.0625 252.531 46.0625C251.26 46.0625 250.156 46.2292 249.219 46.5625C248.302 46.875 247.531 47.3438 246.906 47.9688C246.302 48.5938 245.844 49.3542 245.531 50.25C245.24 51.1458 245.073 52.1667 245.031 53.3125L243.219 52.75C243.219 50.5625 243.438 48.5521 243.875 46.7188C244.312 44.8646 244.948 43.25 245.781 41.875C246.635 40.5 247.677 39.4375 248.906 38.6875C250.135 37.9375 251.542 37.5625 253.125 37.5625C253.625 37.5625 254.135 37.6042 254.656 37.6875C255.177 37.75 255.604 37.8438 255.938 37.9688ZM279.531 64.625V24H288.594V72H280.438L279.531 64.625ZM258.156 55.5V54.8438C258.156 52.2604 258.448 49.9167 259.031 47.8125C259.615 45.6875 260.469 43.8646 261.594 42.3438C262.719 40.8229 264.104 39.6458 265.75 38.8125C267.396 37.9792 269.271 37.5625 271.375 37.5625C273.354 37.5625 275.083 37.9792 276.562 38.8125C278.062 39.6458 279.333 40.8333 280.375 42.375C281.438 43.8958 282.292 45.6979 282.938 47.7812C283.583 49.8438 284.052 52.1042 284.344 54.5625V56C284.052 58.3542 283.583 60.5417 282.938 62.5625C282.292 64.5833 281.438 66.3542 280.375 67.875C279.333 69.375 278.062 70.5417 276.562 71.375C275.062 72.2083 273.312 72.625 271.312 72.625C269.208 72.625 267.333 72.1979 265.688 71.3438C264.062 70.4896 262.688 69.2917 261.562 67.75C260.458 66.2083 259.615 64.3958 259.031 62.3125C258.448 60.2292 258.156 57.9583 258.156 55.5ZM267.156 54.8438V55.5C267.156 56.8958 267.26 58.1979 267.469 59.4062C267.698 60.6146 268.062 61.6875 268.562 62.625C269.083 63.5417 269.75 64.2604 270.562 64.7812C271.396 65.2812 272.406 65.5312 273.594 65.5312C275.135 65.5312 276.406 65.1875 277.406 64.5C278.406 63.7917 279.167 62.8229 279.688 61.5938C280.229 60.3646 280.542 58.9479 280.625 57.3438V53.25C280.562 51.9375 280.375 50.7604 280.062 49.7188C279.771 48.6562 279.333 47.75 278.75 47C278.188 46.25 277.479 45.6667 276.625 45.25C275.792 44.8333 274.802 44.625 273.656 44.625C272.49 44.625 271.49 44.8958 270.656 45.4375C269.823 45.9583 269.146 46.6771 268.625 47.5938C268.125 48.5104 267.75 49.5938 267.5 50.8438C267.271 52.0729 267.156 53.4062 267.156 54.8438ZM305.125 38.1875V72H296.094V38.1875H305.125ZM295.531 29.375C295.531 28.0625 295.99 26.9792 296.906 26.125C297.823 25.2708 299.052 24.8438 300.594 24.8438C302.115 24.8438 303.333 25.2708 304.25 26.125C305.188 26.9792 305.656 28.0625 305.656 29.375C305.656 30.6875 305.188 31.7708 304.25 32.625C303.333 33.4792 302.115 33.9062 300.594 33.9062C299.052 33.9062 297.823 33.4792 296.906 32.625C295.99 31.7708 295.531 30.6875 295.531 29.375ZM324.031 72H314.969V35.1875C314.969 32.625 315.469 30.4688 316.469 28.7188C317.49 26.9479 318.917 25.6146 320.75 24.7188C322.604 23.8021 324.802 23.3438 327.344 23.3438C328.177 23.3438 328.979 23.4062 329.75 23.5312C330.521 23.6354 331.271 23.7708 332 23.9375L331.906 30.7188C331.51 30.6146 331.094 30.5417 330.656 30.5C330.219 30.4583 329.708 30.4375 329.125 30.4375C328.042 30.4375 327.115 30.625 326.344 31C325.594 31.3542 325.021 31.8854 324.625 32.5938C324.229 33.3021 324.031 34.1667 324.031 35.1875V72ZM330.781 38.1875V44.5625H309.938V38.1875H330.781ZM345.531 68.1875L354.5 38.1875H364.156L350.562 77.0938C350.271 77.9479 349.875 78.8646 349.375 79.8438C348.896 80.8229 348.24 81.75 347.406 82.625C346.594 83.5208 345.562 84.25 344.312 84.8125C343.083 85.375 341.573 85.6562 339.781 85.6562C338.927 85.6562 338.229 85.6042 337.688 85.5C337.146 85.3958 336.5 85.25 335.75 85.0625V78.4688C335.979 78.4688 336.219 78.4688 336.469 78.4688C336.719 78.4896 336.958 78.5 337.188 78.5C338.375 78.5 339.344 78.3646 340.094 78.0938C340.844 77.8229 341.448 77.4062 341.906 76.8438C342.365 76.3021 342.729 75.5938 343 74.7188L345.531 68.1875ZM341.781 38.1875L349.125 62.6875L350.406 72.2188L344.281 72.875L332.125 38.1875H341.781Z" fill="black"/>
</svg>
