<svg width="99" height="100" viewBox="0 0 99 100" fill="none" xmlns="http://www.w3.org/2000/svg">
<ellipse cx="49.5" cy="50" rx="49.5" ry="50" fill="#F14535"/>
<path fill-rule="evenodd" clip-rule="evenodd" d="M55.44 30.5C55.44 30.1022 55.2835 29.7206 55.005 29.4393C54.7265 29.158 54.3488 29 53.955 29H45.045C44.6511 29 44.2734 29.158 43.9949 29.4393C43.7164 29.7206 43.56 30.1022 43.56 30.5V33.5C43.56 33.8978 43.7164 34.2794 43.9949 34.5607C44.2734 34.842 44.6511 35 45.045 35H53.955C54.3488 35 54.7265 34.842 55.005 34.5607C55.2835 34.2794 55.44 33.8978 55.44 33.5V30.5ZM40.59 30.5C40.59 29.3065 41.0593 28.1619 41.8948 27.318C42.7303 26.4741 43.8634 26 45.045 26H53.955C55.1365 26 56.2696 26.4741 57.1051 27.318C57.9406 28.1619 58.41 29.3065 58.41 30.5V33.5C58.41 34.6935 57.9406 35.8381 57.1051 36.682C56.2696 37.5259 55.1365 38 53.955 38H45.045C43.8634 38 42.7303 37.5259 41.8948 36.682C41.0593 35.8381 40.59 34.6935 40.59 33.5V30.5ZM34.65 30.5H37.62V33.5C37.62 35.4891 38.4022 37.3968 39.7947 38.8033C41.1872 40.2098 43.0757 41 45.045 41H53.955C54.93 41 55.8955 40.806 56.7964 40.4291C57.6972 40.0522 58.5158 39.4997 59.2052 38.8033C59.8947 38.1069 60.4416 37.2801 60.8148 36.3701C61.1879 35.4602 61.38 34.4849 61.38 33.5V30.5H64.35C65.9253 30.5 67.4362 31.1321 68.5502 32.2574C69.6641 33.3826 70.29 34.9087 70.29 36.5V68C70.29 69.5913 69.6641 71.1174 68.5502 72.2426C67.4362 73.3679 65.9253 74 64.35 74H34.65C33.0746 74 31.5637 73.3679 30.4497 72.2426C29.3358 71.1174 28.71 69.5913 28.71 68V36.5C28.71 34.9087 29.3358 33.3826 30.4497 32.2574C31.5637 31.1321 33.0746 30.5 34.65 30.5Z" fill="white"/>
</svg>
