<svg width="24" height="24" viewBox="0 0 24 24" fill="none" xmlns="http://www.w3.org/2000/svg">
<g clip-path="url(#clip0_5_960)">
<path d="M15.3195 2.20646L16.356 0.316456C16.425 0.192456 16.401 0.0964564 16.284 0.0284564C16.156 -0.0285436 16.0585 0.000456374 15.9915 0.115456L14.9415 2.02046C14.017 1.61394 13.0174 1.40644 12.0075 1.41146C10.9755 1.41146 9.9975 1.61346 9.0735 2.01746L8.0235 0.112456C7.9555 0.000456385 7.858 -0.0270436 7.731 0.0299564C7.614 0.0989564 7.5895 0.195456 7.6575 0.319456L8.694 2.20796C7.67527 2.70931 6.80892 3.47365 6.1845 4.42196C5.57029 5.3417 5.24487 6.42399 5.25 7.52996H18.75C18.75 6.40496 18.4385 5.36896 17.8155 4.42196C17.1937 3.47641 16.3325 2.71249 15.3195 2.20796V2.20646ZM9.33 4.95446C9.27772 5.0074 9.21532 5.0493 9.14651 5.07764C9.07771 5.10599 9.00391 5.12021 8.9295 5.11946C8.85585 5.12117 8.78266 5.10737 8.71469 5.07894C8.64673 5.05051 8.5855 5.0081 8.535 4.95446C8.48341 4.90233 8.44267 4.84049 8.41512 4.77252C8.38757 4.70455 8.37376 4.63179 8.3745 4.55846C8.37357 4.48487 8.38727 4.41183 8.41483 4.34359C8.44238 4.27534 8.48323 4.21326 8.535 4.16096C8.5855 4.10731 8.64673 4.0649 8.71469 4.03647C8.78266 4.00804 8.85585 3.99424 8.9295 3.99596C9.0845 3.99596 9.218 4.05096 9.33 4.16096C9.38383 4.2121 9.42653 4.2738 9.45544 4.34219C9.48434 4.41059 9.49883 4.48421 9.498 4.55846C9.49863 4.63245 9.48404 4.70579 9.45514 4.77391C9.42624 4.84203 9.38364 4.90348 9.33 4.95446ZM15.4815 4.95446C15.4312 5.00791 15.3702 5.05021 15.3025 5.07863C15.2348 5.10705 15.1619 5.12096 15.0885 5.11946C15.0138 5.12041 14.9398 5.10629 14.8707 5.07794C14.8016 5.04958 14.739 5.00759 14.6865 4.95446C14.6329 4.90348 14.5903 4.84203 14.5614 4.77391C14.5325 4.70579 14.5179 4.63245 14.5185 4.55846C14.5185 4.40446 14.5745 4.27196 14.6865 4.16096C14.739 4.10783 14.8016 4.06583 14.8707 4.03748C14.9398 4.00913 15.0138 3.995 15.0885 3.99596C15.2435 3.99596 15.3745 4.05096 15.4815 4.16096C15.5333 4.21326 15.5741 4.27534 15.6017 4.34359C15.6292 4.41183 15.6429 4.48487 15.642 4.55846C15.642 4.71146 15.5885 4.84346 15.4815 4.95446ZM5.25 17.655C5.25 18.096 5.4055 18.471 5.7165 18.78C6.0275 19.086 6.4075 19.2395 6.8565 19.2405H7.9935L8.0085 22.5135C8.0085 22.9275 8.1545 23.279 8.4465 23.568C8.58311 23.7074 8.74663 23.8175 8.92713 23.8918C9.10763 23.9661 9.30134 24.0029 9.4965 24C9.69405 24.004 9.89036 23.9678 10.0735 23.8936C10.2566 23.8193 10.4226 23.7085 10.5615 23.568C10.7033 23.4319 10.8154 23.268 10.8907 23.0865C10.9661 22.905 11.0031 22.7099 10.9995 22.5135V19.2405H13.014V22.5135C13.014 22.9275 13.16 23.279 13.452 23.568C13.5909 23.7085 13.7569 23.8193 13.94 23.8936C14.1231 23.9678 14.3195 24.004 14.517 24C14.7146 24.004 14.9109 23.9678 15.094 23.8936C15.2771 23.8193 15.4431 23.7085 15.582 23.568C15.7238 23.4319 15.8359 23.268 15.9112 23.0865C15.9866 22.905 16.0236 22.7099 16.02 22.5135V19.2405H17.16C17.596 19.2405 17.9705 19.0865 18.2835 18.7785C18.5935 18.4715 18.749 18.0965 18.75 17.6535V8.04746H5.25V17.655ZM20.9925 7.77446C20.7981 7.77088 20.605 7.8059 20.4242 7.87748C20.2435 7.94905 20.0787 8.05577 19.9395 8.19146C19.7971 8.32142 19.6842 8.48036 19.6084 8.65759C19.5326 8.83483 19.4957 9.02624 19.5 9.21896V15.3135C19.5 15.7195 19.6465 16.0645 19.9395 16.3485C20.0775 16.4864 20.2418 16.5953 20.4227 16.6685C20.6036 16.7416 20.7974 16.7777 20.9925 16.7745C21.4125 16.7745 21.7685 16.6325 22.0605 16.3485C22.2023 16.2165 22.3147 16.0561 22.3904 15.8777C22.4662 15.6994 22.5035 15.5072 22.5 15.3135V9.21896C22.5044 9.02624 22.4674 8.83483 22.3916 8.65759C22.3158 8.48036 22.2029 8.32142 22.0605 8.19146C21.7738 7.91652 21.3897 7.76655 20.9925 7.77446ZM1.9395 8.19896C2.08088 8.06147 2.24798 7.95321 2.43124 7.88036C2.6145 7.80752 2.81032 7.77153 3.0075 7.77446C3.4175 7.77446 3.7685 7.91596 4.0605 8.19896C4.20191 8.32808 4.31423 8.48581 4.39001 8.66166C4.46578 8.83753 4.50328 9.02749 4.5 9.21896V15.3135C4.50353 15.5065 4.46696 15.6981 4.3926 15.8763C4.31824 16.0544 4.20771 16.2152 4.068 16.3485C3.92914 16.4874 3.76359 16.5967 3.58133 16.6699C3.39907 16.7432 3.20387 16.7787 3.0075 16.7745C2.81022 16.7772 2.61433 16.741 2.43106 16.6679C2.2478 16.5948 2.08076 16.4862 1.9395 16.3485C1.7977 16.2165 1.68528 16.0561 1.60956 15.8777C1.53383 15.6994 1.49651 15.5072 1.5 15.3135V9.21896C1.5 8.82296 1.6465 8.48296 1.9395 8.19896Z" fill="#4A4A4A"/>
</g>
<defs>
<clipPath id="clip0_5_960">
<rect width="24" height="24" fill="white"/>
</clipPath>
</defs>
</svg>
