<svg width="32" height="32" viewBox="0 0 32 32" fill="none" xmlns="http://www.w3.org/2000/svg">
<g clip-path="url(#clip0_5_1276)">
<path d="M16 -2.67029e-05C11.7565 -2.67029e-05 7.68687 1.68568 4.68629 4.68626C1.68571 7.68684 0 11.7565 0 16C0 20.2434 1.68571 24.3131 4.68629 27.3137C7.68687 30.3143 11.7565 32 16 32C20.2435 32 24.3131 30.3143 27.3137 27.3137C30.3143 24.3131 32 20.2434 32 16C32 11.7565 30.3143 7.68684 27.3137 4.68626C24.3131 1.68568 20.2435 -2.67029e-05 16 -2.67029e-05ZM23 15C23.2652 15 23.5196 15.1053 23.7071 15.2929C23.8946 15.4804 24 15.7348 24 16C24 16.2652 23.8946 16.5195 23.7071 16.7071C23.5196 16.8946 23.2652 17 23 17H11.414L15.708 21.292C15.8958 21.4797 16.0013 21.7344 16.0013 22C16.0013 22.2655 15.8958 22.5202 15.708 22.708C15.5202 22.8957 15.2655 23.0012 15 23.0012C14.7344 23.0012 14.4798 22.8957 14.292 22.708L8.292 16.708C8.19887 16.6151 8.12499 16.5047 8.07457 16.3832C8.02416 16.2617 7.99821 16.1315 7.99821 16C7.99821 15.8684 8.02416 15.7382 8.07457 15.6167C8.12499 15.4952 8.19887 15.3849 8.292 15.292L14.292 9.29197C14.4798 9.1042 14.7344 8.99871 15 8.99871C15.2655 8.99871 15.5202 9.1042 15.708 9.29197C15.8958 9.47974 16.0013 9.73442 16.0013 9.99997C16.0013 10.2655 15.8958 10.5202 15.708 10.708L11.414 15L23 15Z" fill="white"/>
</g>
<defs>
<clipPath id="clip0_5_1276">
<rect width="32" height="32" fill="white"/>
</clipPath>
</defs>
</svg>
